<?xml version="1.0" standalone="no"?>
<!DOCTYPE svg PUBLIC "-//W3C//DTD SVG 20010904//EN"
 "http://www.w3.org/TR/2001/REC-SVG-20010904/DTD/svg10.dtd">
<svg version="1.0" xmlns="http://www.w3.org/2000/svg"
 width="360.000000pt" height="360.000000pt" viewBox="0 0 360.000000 360.000000"
 preserveAspectRatio="xMidYMid meet">
<metadata>
Created by potrace 1.14, written by Peter Selinger 2001-2017
</metadata>
<g transform="translate(0.000000,360.000000) scale(0.100000,-0.100000)"
fill="#000000" stroke="none">
<path d="M1749 2381 c-38 -8 -123 -53 -135 -72 -14 -23 13 -29 39 -9 42 33 93
50 149 50 53 0 126 -26 159 -56 12 -11 19 -12 24 -4 10 16 -8 33 -62 62 -54
29 -120 40 -174 29z"/>
<path d="M1705 2297 c-22 -12 -41 -30 -43 -40 -5 -23 13 -21 48 4 17 13 50 24
79 27 41 4 58 0 97 -22 49 -27 66 -27 48 1 -34 54 -158 70 -229 30z"/>
<path d="M1733 2240 c-18 -11 -33 -24 -33 -28 0 -19 14 -20 48 -1 45 24 58 24
104 0 36 -18 48 -18 48 1 0 16 -66 48 -100 48 -19 0 -50 -9 -67 -20z"/>
<path d="M1773 2190 c-29 -12 -46 -46 -39 -81 5 -27 3 -29 -23 -29 -76 0 -207
-68 -286 -148 -98 -99 -164 -247 -165 -369 l0 -33 275 0 274 0 37 -25 c45 -31
97 -32 142 -5 53 33 39 83 -32 110 -38 14 -90 3 -121 -26 l-26 -24 -255 0
c-139 1 -256 5 -259 10 -10 16 23 146 51 201 54 109 164 206 284 254 58 23
208 31 282 16 139 -29 285 -143 346 -271 l31 -65 -236 -3 -235 -2 -24 25 c-21
23 -30 25 -109 25 -49 0 -85 -4 -85 -10 0 -14 44 -23 85 -18 24 3 35 0 35 -9
0 -9 -15 -13 -44 -13 -24 0 -51 -3 -60 -6 -30 -12 -5 -24 50 -24 41 0 54 -4
54 -15 0 -12 -13 -15 -60 -15 -33 0 -60 -4 -60 -10 0 -6 37 -10 90 -10 84 0
90 1 106 25 l16 25 254 0 c291 0 275 -6 230 92 -72 163 -228 288 -391 317 -38
6 -40 8 -37 42 5 52 -46 88 -95 69z m62 -41 c4 -5 4 -21 1 -35 -5 -18 -13 -24
-36 -24 -33 0 -50 31 -30 55 14 17 56 20 65 4z"/>
<path d="M2310 1590 l0 -30 -121 0 c-92 0 -120 -3 -117 -12 3 -9 42 -14 136
-16 l132 -3 0 46 c0 33 -4 45 -15 45 -10 0 -15 -10 -15 -30z"/>
<path d="M1000 1305 c0 -69 3 -85 15 -85 10 0 15 10 15 30 0 19 5 30 14 30 8
0 24 -13 36 -30 12 -16 28 -30 36 -30 18 0 18 5 -2 35 -15 22 -15 26 0 40 23
23 20 61 -6 79 -12 9 -42 16 -65 16 l-43 0 0 -85z m98 28 c3 -17 -3 -24 -22
-29 -33 -8 -46 1 -46 32 0 22 4 25 33 22 24 -2 33 -8 35 -25z"/>
<path d="M1160 1305 l0 -85 55 0 c30 0 55 5 55 10 0 6 -18 10 -40 10 -36 0
-40 3 -40 25 0 22 4 25 35 25 26 0 35 4 35 16 0 13 -8 15 -35 12 -31 -4 -35
-1 -35 19 0 20 5 23 40 23 29 0 40 4 40 15 0 12 -13 15 -55 15 l-55 0 0 -85z"/>
<path d="M1322 1383 c-7 -2 -17 -13 -22 -24 -15 -27 3 -55 45 -69 59 -20 33
-60 -29 -44 -21 5 -25 3 -20 -9 7 -19 58 -27 87 -13 15 8 22 21 22 41 0 26 -6
33 -43 49 -50 23 -50 41 1 41 21 0 37 5 37 11 0 20 -46 30 -78 17z"/>
<path d="M1420 1375 c0 -9 9 -15 25 -15 24 0 25 -2 25 -70 0 -56 3 -70 15 -70
12 0 15 14 15 70 l0 70 30 0 c20 0 30 5 30 15 0 12 -14 15 -70 15 -56 0 -70
-3 -70 -15z"/>
<path d="M1581 1313 c-17 -43 -31 -81 -31 -85 0 -17 29 -7 35 12 5 15 15 20
45 20 29 0 39 -4 43 -20 3 -11 12 -20 21 -20 9 0 16 1 16 3 0 1 -15 38 -33 82
-19 46 -39 81 -49 83 -11 2 -24 -19 -47 -75z m64 -5 c6 -23 4 -28 -12 -28 -28
0 -32 8 -20 40 12 33 22 29 32 -12z"/>
<path d="M1730 1323 c0 -38 4 -73 8 -80 13 -21 60 -33 86 -23 35 13 46 40 46
109 0 48 -3 61 -15 61 -12 0 -15 -14 -15 -64 0 -72 -14 -92 -55 -82 -24 6 -25
10 -25 76 0 56 -3 70 -15 70 -12 0 -15 -14 -15 -67z"/>
<path d="M1900 1305 c0 -69 3 -85 15 -85 10 0 15 10 15 30 0 19 5 30 14 30 8
0 24 -13 36 -30 12 -16 28 -30 36 -30 13 0 13 4 -2 29 -16 27 -16 30 -1 46 43
43 4 95 -70 95 l-43 0 0 -85z m98 31 c5 -22 -13 -36 -45 -36 -19 0 -23 5 -23
31 0 28 2 30 32 27 23 -2 34 -9 36 -22z"/>
<path d="M2110 1368 c-5 -13 -20 -51 -34 -85 -24 -60 -24 -63 -5 -63 12 0 19
7 19 20 0 17 7 20 41 20 32 0 42 -4 46 -20 3 -11 13 -20 23 -20 16 0 15 9 -15
83 -35 85 -58 105 -75 65z m50 -83 c0 -1 -11 -2 -25 -2 -28 0 -30 5 -13 42
l12 26 13 -32 c7 -17 13 -32 13 -34z"/>
<path d="M2240 1306 c0 -70 3 -86 15 -86 12 0 15 14 15 63 l0 62 41 -62 c27
-40 48 -63 60 -63 17 0 19 9 19 85 0 69 -3 85 -15 85 -12 0 -15 -14 -15 -66
l0 -66 -44 63 c-63 93 -76 91 -76 -15z"/>
<path d="M2410 1375 c0 -10 10 -15 30 -15 l30 0 0 -70 c0 -56 3 -70 15 -70 12
0 15 14 15 70 0 68 1 70 25 70 16 0 25 6 25 15 0 12 -14 15 -70 15 -56 0 -70
-3 -70 -15z"/>
<path d="M1126 1154 c-3 -9 -4 -19 -1 -22 3 -3 5 1 5 9 0 11 2 11 10 -1 5 -8
10 -10 10 -5 0 6 -4 16 -9 23 -6 11 -10 10 -15 -4z"/>
<path d="M1301 1154 c0 -11 3 -14 6 -6 3 7 2 16 -1 19 -3 4 -6 -2 -5 -13z"/>
<path d="M1782 1150 c0 -14 2 -19 5 -12 2 6 2 18 0 25 -3 6 -5 1 -5 -13z"/>
<path d="M1671 1144 c0 -11 3 -14 6 -6 3 7 2 16 -1 19 -3 4 -6 -2 -5 -13z"/>
<path d="M1481 1134 c0 -11 3 -14 6 -6 3 7 2 16 -1 19 -3 4 -6 -2 -5 -13z"/>
<path d="M2438 1143 c7 -3 16 -2 19 1 4 3 -2 6 -13 5 -11 0 -14 -3 -6 -6z"/>
</g>
</svg>
